<?xml version="1.0" standalone="no"?>
<!DOCTYPE svg PUBLIC "-//W3C//DTD SVG 20010904//EN"
 "http://www.w3.org/TR/2001/REC-SVG-20010904/DTD/svg10.dtd">
<svg version="1.0" xmlns="http://www.w3.org/2000/svg"
 width="320.000000pt" height="320.000000pt" viewBox="0 0 320.000000 320.000000"
 preserveAspectRatio="xMidYMid meet">
<metadata>
Created by potrace 1.14, written by Peter Selinger 2001-2017
</metadata>
<g transform="translate(0.000000,320.000000) scale(0.100000,-0.100000)"
fill="#000000" stroke="none">
<path d="M1517 2507 c-70 -41 -98 -93 -92 -171 12 -176 250 -222 329 -64 76
153 -93 321 -237 235z"/>
<path d="M1514 2061 c-2 -2 -24 -5 -49 -6 -52 -4 -155 -34 -155 -46 0 -5 -6
-9 -13 -9 -14 0 -70 -57 -104 -105 -12 -17 -28 -55 -37 -85 -14 -51 -18 -82
-31 -259 -6 -81 -26 -149 -65 -215 -44 -79 -81 -114 -220 -212 -69 -48 -126
-92 -128 -96 -2 -4 -9 -8 -15 -8 -7 0 -17 -8 -24 -18 -25 -41 41 -112 90 -96
20 6 19 3 -7 -30 -15 -21 -29 -45 -31 -54 -2 -9 -4 -17 -5 -17 -1 0 -4 -18 -5
-40 -5 -54 27 -110 74 -129 44 -18 383 -15 471 4 30 6 71 13 90 15 19 2 49 6
65 9 28 5 54 9 135 20 19 2 55 8 80 11 46 7 110 -4 287 -46 69 -17 128 -22
275 -24 168 -3 190 -2 226 16 59 29 82 92 62 166 -7 23 -20 50 -29 60 -42 47
-42 49 -6 45 28 -3 40 2 66 27 29 29 30 33 17 54 -8 12 -69 61 -135 108 -168
119 -180 128 -218 180 -64 90 -93 169 -100 279 -8 113 -17 196 -26 238 -10 48
-62 134 -100 168 -25 22 -98 70 -111 73 -5 0 -9 1 -10 2 -48 14 -303 31 -314
20z m391 -382 c2 -9 6 -32 9 -50 3 -19 8 -45 10 -59 3 -14 7 -52 11 -85 9 -91
34 -163 82 -237 41 -63 127 -151 182 -186 15 -9 37 -27 51 -40 14 -12 33 -25
43 -28 14 -4 25 -24 14 -24 -9 0 -250 137 -304 173 -87 58 -93 73 -109 282 -3
39 -7 93 -9 120 -2 28 -6 93 -9 145 l-5 95 15 -45 c8 -25 17 -52 19 -61z
m-580 -6 c-3 -38 -7 -86 -9 -108 -5 -48 -18 -188 -21 -230 -3 -53 -18 -109
-34 -136 -19 -30 -74 -79 -90 -79 -6 0 -11 -4 -11 -10 0 -5 -5 -10 -10 -10 -6
0 -27 -10 -48 -23 -20 -13 -57 -32 -82 -42 -25 -11 -71 -34 -102 -52 -73 -43
-85 -42 -22 1 27 19 54 39 59 43 6 5 39 31 75 58 36 27 74 57 84 67 11 10 23
18 28 18 4 0 8 6 8 14 0 7 7 19 15 26 43 36 103 204 120 334 3 28 13 81 21
119 7 37 14 70 14 73 0 2 2 4 5 4 3 0 3 -30 0 -67z"/>
</g>
</svg>
