<?xml version="1.0" standalone="no"?>
<!DOCTYPE svg PUBLIC "-//W3C//DTD SVG 20010904//EN"
 "http://www.w3.org/TR/2001/REC-SVG-20010904/DTD/svg10.dtd">
<svg version="1.0" xmlns="http://www.w3.org/2000/svg"
 width="202.000000pt" height="202.000000pt" viewBox="0 0 202.000000 202.000000"
 preserveAspectRatio="xMidYMid meet">
<metadata>
Created by potrace 1.14, written by Peter Selinger 2001-2017
</metadata>
<g transform="translate(0.000000,202.000000) scale(0.100000,-0.100000)"
fill="#000000" stroke="none">
<path d="M944 1955 c-71 -30 -106 -81 -110 -160 -2 -55 14 -94 54 -132 52 -49
133 -62 194 -32 38 19 101 87 92 100 -2 4 0 10 4 13 12 7 8 84 -6 116 -34 84
-146 131 -228 95z"/>
<path d="M967 1503 c-1 -1 -34 -4 -72 -7 -107 -9 -169 -32 -224 -85 -88 -85
-116 -149 -125 -286 -12 -168 -18 -210 -37 -264 -26 -75 -101 -184 -152 -221
-23 -16 -51 -36 -62 -44 -11 -8 -58 -42 -105 -75 -115 -81 -112 -78 -108 -119
3 -32 10 -40 46 -60 l42 -24 -22 -30 c-30 -43 -31 -125 -2 -165 41 -57 66 -62
277 -57 106 2 208 6 227 10 19 3 53 7 75 8 52 5 274 35 328 45 54 10 80 7 207
-24 142 -35 140 -35 347 -39 166 -4 186 -2 222 16 71 35 91 138 40 209 -24 35
-24 49 1 49 29 0 70 44 70 74 0 23 -23 48 -76 84 -200 134 -272 199 -320 287
-46 86 -53 118 -69 336 -9 114 -20 152 -62 216 -80 122 -172 161 -396 167 -27
0 -49 0 -50 -1z m367 -568 c21 -160 58 -239 165 -346 42 -42 89 -85 105 -96
19 -13 23 -20 12 -20 -9 0 -16 5 -16 10 0 6 -3 8 -6 4 -8 -7 -142 65 -201 107
-61 45 -77 89 -88 241 -4 62 -12 167 -20 275 -1 19 0 40 3 45 9 14 28 -78 46
-220z m-609 67 c-20 -253 -21 -260 -34 -311 -13 -47 -37 -73 -115 -125 -59
-39 -176 -99 -182 -93 -2 2 25 24 60 50 148 109 218 234 246 444 13 94 32 121
25 35z"/>
</g>
</svg>
