<?xml version="1.0" standalone="no"?>
<!DOCTYPE svg PUBLIC "-//W3C//DTD SVG 20010904//EN"
 "http://www.w3.org/TR/2001/REC-SVG-20010904/DTD/svg10.dtd">
<svg version="1.0" xmlns="http://www.w3.org/2000/svg"
 width="136.000000pt" height="136.000000pt" viewBox="0 0 136.000000 136.000000"
 preserveAspectRatio="xMidYMid meet">
<metadata>
Created by potrace 1.14, written by Peter Selinger 2001-2017
</metadata>
<g transform="translate(0.000000,136.000000) scale(0.100000,-0.100000)"
fill="#000000" stroke="none">
<path d="M90 975 l0 -295 68 0 c37 -1 169 -1 295 -1 l227 1 0 -295 0 -295 295
0 295 0 0 295 0 295 -294 0 -295 0 0 283 c0 155 0 288 0 295 -1 9 -67 12 -296
12 l-295 0 0 -295z m350 220 c9 -11 12 -64 12 -187 0 -275 2 -257 -29 -264
-47 -12 -53 10 -53 199 l0 169 -25 -16 c-15 -10 -34 -14 -45 -11 -34 11 -23
42 27 77 75 52 93 57 113 33z m630 -585 c12 -7 15 -36 17 -142 0 -73 2 -136 2
-140 1 -5 12 -8 25 -8 15 0 26 -7 29 -20 6 -24 -19 -54 -39 -46 -8 3 -14 0
-15 -7 0 -7 -2 -27 -3 -45 -2 -33 -18 -52 -43 -52 -20 0 -41 40 -36 71 2 16 0
29 -6 30 -6 1 -46 2 -89 3 -84 1 -113 14 -107 46 3 16 71 128 86 140 3 3 29
40 57 82 63 93 87 111 122 88z"/>
<path d="M990 476 c0 -8 -3 -16 -7 -18 -8 -3 -93 -124 -93 -131 0 -2 26 -3 58
-3 l57 1 2 83 c1 45 -3 82 -8 82 -5 0 -9 -6 -9 -14z"/>
<path d="M934 1197 c-68 -27 -96 -64 -71 -94 13 -18 35 -16 65 6 15 10 39 21
53 24 36 9 79 -25 79 -62 0 -42 -24 -71 -156 -188 -73 -65 -83 -85 -56 -115
13 -16 34 -18 158 -18 122 0 144 2 152 16 13 23 3 54 -17 55 -9 1 -51 2 -93 3
-43 0 -78 4 -78 9 0 4 25 31 56 60 86 78 114 122 114 174 0 52 -19 94 -55 117
-34 22 -112 29 -151 13z"/>
<path d="M282 585 c-42 -23 -54 -58 -24 -74 13 -7 26 -6 44 3 61 32 123 23
134 -20 9 -35 -12 -62 -54 -69 -56 -10 -62 -13 -62 -33 0 -27 18 -38 65 -40
49 -3 89 -41 79 -75 -8 -30 -41 -57 -70 -58 -13 -1 -30 -2 -36 -3 -7 -1 -33 3
-56 10 -47 14 -67 10 -76 -12 -16 -42 39 -69 139 -69 118 0 179 47 180 138 0
43 -4 52 -36 81 l-35 33 23 27 c49 57 16 150 -61 176 -48 15 -110 10 -154 -15z"/>
</g>
</svg>
